<?xml version="1.0" encoding="utf-8"?>
<svg xmlns="http://www.w3.org/2000/svg" style="margin: auto; background: none; display: block; shape-rendering: auto;" width="204" height="33" preserveAspectRatio="xMidYMid">
<style type="text/css">
  text {
    text-anchor: middle; font-size: 26px; opacity: 0;
  }
</style>
<g style="transform-origin: 102px 16.5px; transform: scale(0.962963);">
<g transform="translate(102,16.5)">
  <g transform="translate(0,0)"><g class="path" style="transform: scale(1); transform-origin: -84.455px 3.1364px; animation: 1s linear -0.625263s infinite normal forwards running beat-046874f4-92c2-486b-a29f-167cd6afe107;"><path d="M11.04 12.10L11.04 12.10Q10.61 12.10 10.56 11.53L10.56 11.53L10.56 11.53Q11.39 6.37 12.00 3.90L12.00 3.90L12.00 3.90Q12.61 1.43 13.61-1.81L13.61-1.81L13.61-1.81Q11.15 0.40 7.18 0.40L7.18 0.40L7.18 0.40Q5.24 0.40 3.87-0.73L3.87-0.73L3.87-0.73Q2.51-1.86 1.81-3.67L1.81-3.67L1.81-3.67Q1.11-5.48 1.11-7.53L1.11-7.53L1.11-7.53Q1.11-11.42 2.71-15.74L2.71-15.74L2.71-15.74Q4.32-20.06 6.82-22.95L6.82-22.95L6.82-22.95Q9.31-25.84 11.80-25.84L11.80-25.84L11.80-25.84Q14.04-25.84 15.40-24.50L15.40-24.50L15.40-24.50Q16.77-23.17 17.17-20.79L17.17-20.79L17.17-20.79Q17.06-19.98 16.74-19.98L16.74-19.98L16.74-19.98Q16.47-19.98 16.08-20.57L16.08-20.57L16.08-20.57Q15.69-21.17 15.31-22.03L15.31-22.03L15.31-22.03Q14.26-24.57 11.80-24.57L11.80-24.57L11.80-24.57Q9.37-24.57 7.18-21.80L7.18-21.80L7.18-21.80Q5.00-19.04 3.67-15.11L3.67-15.11L3.67-15.11Q2.35-11.18 2.35-8.10L2.35-8.10L2.35-8.10Q2.35-4.89 3.54-2.85L3.54-2.85L3.54-2.85Q4.72-0.81 7.37-0.81L7.37-0.81L7.37-0.81Q12.04-0.81 13.74-3.40L13.74-3.40L13.74-3.40Q14.18-4.05 14.34-4.62L14.34-4.62L14.34-4.62Q14.50-5.18 14.50-5.80L14.50-5.80L14.50-5.80Q14.36-6.18 13.20-7.37L13.20-7.37L13.20-7.37Q12.04-8.56 11.04-9.26L11.04-9.26L11.04-9.26Q9.31-8.91 7.10-8.61L7.10-8.61L7.10-8.61Q6.56-8.67 6.56-9.10L6.56-9.10L6.56-9.10Q6.56-9.45 6.88-9.72L6.88-9.72L6.88-9.72Q8.64-10.99 9.94-10.99L9.94-10.99L9.94-10.99Q10.72-10.99 11.45-10.58L11.45-10.58L11.45-10.58Q14.74-11.31 18.79-12.61L18.79-12.61L18.79-12.61Q19.44-12.61 19.44-12.15L19.44-12.15L19.44-12.15Q19.44-11.99 19.33-11.74L19.33-11.74L19.33-11.74Q15.85-5.99 14.09 0.65L14.09 0.65L14.09 0.65Q13.53 2.75 13.20 4.31L13.20 4.31L13.20 4.31Q12.88 5.86 12.37 8.42L12.37 8.42L11.80 11.34L11.80 11.34Q11.77 11.64 11.52 11.87L11.52 11.87L11.52 11.87Q11.26 12.10 11.04 12.10L11.04 12.10zM15.42-6.72L15.42-6.72Q15.85-7.67 16.56-9.10L16.56-9.10L16.56-9.10Q17.28-10.53 17.55-10.99L17.55-10.99L17.55-10.99Q15.12-10.18 12.74-9.61L12.74-9.61L12.74-9.61Q13.37-9.02 14.18-8.13L14.18-8.13L14.18-8.13Q14.98-7.24 15.42-6.72L15.42-6.72" fill="#f5542e" stroke="none" stroke-width="none" transform="translate(-94.73001098632812,10.006401367187504)" style="fill: rgb(245, 84, 46);"></path></g><g class="path" style="transform: scale(1); transform-origin: -69.97px 3.2414px; animation: 1s linear -0.590526s infinite normal forwards running beat-046874f4-92c2-486b-a29f-167cd6afe107;"><path d="M23.71 0.27L23.71 0.27Q22.84 0.27 22.36-0.01L22.36-0.01L22.36-0.01Q21.87-0.30 21.57-0.89L21.57-0.89L21.57-0.89Q21.01-1.94 21.01-3.43L21.01-3.43L21.01-3.43Q21.01-6.02 21.79-8.36L21.79-8.36L21.79-8.36Q22.57-10.69 23.92-12.29L23.92-12.29L23.92-12.29Q25.22-13.80 26.76-13.80L26.76-13.80L26.76-13.80Q27.57-13.80 28.04-13.14L28.04-13.14L28.04-13.14Q28.51-12.47 28.51-11.53L28.51-11.53L28.51-11.53Q28.51-9.88 27.66-8.67L27.66-8.67L27.66-8.67Q26.81-7.45 25.38-6.64L25.38-6.64L25.38-6.64Q24.14-5.91 22.36-5.18L22.36-5.18L22.30-3.24L22.30-3.24Q22.30-0.97 23.68-0.97L23.68-0.97L23.68-0.97Q24.25-0.97 24.77-1.19L24.77-1.19L24.77-1.19Q25.30-1.40 25.92-1.78L25.92-1.78L25.92-1.78Q26.65-2.21 26.95-2.21L26.95-2.21L26.95-2.21Q27.40-2.21 27.40-1.73L27.40-1.73L27.40-1.73Q27.40-1.38 26.74-0.89L26.74-0.89L26.74-0.89Q26.08-0.40 25.19-0.07L25.19-0.07L25.19-0.07Q24.30 0.27 23.71 0.27L23.71 0.27zM22.57-6.48L22.57-6.48Q24.38-7.21 25.33-7.78L25.33-7.78L25.33-7.78Q26.27-8.34 26.77-9.21L26.77-9.21L26.77-9.21Q27.27-10.07 27.27-11.47L27.27-11.47L27.27-11.47Q27.27-12.53 26.38-12.53L26.38-12.53L26.38-12.53Q25.60-12.53 24.54-11.10L24.54-11.10L24.54-11.10Q23.44-9.67 22.76-7.34L22.76-7.34L22.76-7.34Q22.57-6.70 22.57-6.48L22.57-6.48" fill="#f5542e" stroke="none" stroke-width="none" transform="translate(-94.73001098632812,10.006401367187504)" style="fill: rgb(242, 195, 39);"></path></g><g class="path" style="transform: scale(1); transform-origin: -60.05px 3.3214px; animation: 1s linear -0.555789s infinite normal forwards running beat-046874f4-92c2-486b-a29f-167cd6afe107;"><path d="M37.26 0.16L37.26 0.16Q36.83 0.16 36.64 0L36.64 0L36.64 0Q36.45-0.16 36.50-0.57L36.50-0.57L37.83-8.45L37.83-8.45Q38.07-9.91 38.07-10.69L38.07-10.69L38.07-10.69Q38.07-11.99 37.34-11.99L37.34-11.99L37.34-11.99Q36.45-11.99 34.90-8.90L34.90-8.90L34.90-8.90Q33.34-5.80 31.70-1.92L31.70-1.92L31.32-1.05L31.32-1.05Q30.83 0 30.35 0L30.35 0L30.35 0Q30.08 0 30.01-0.12L30.01-0.12L30.01-0.12Q29.94-0.24 29.94-0.65L29.94-0.65L29.94-0.65Q29.94-1.05 31.01-6.88L31.01-6.88L31.01-6.88Q32.08-12.72 32.24-13.01L32.24-13.01L32.24-13.01Q32.40-13.34 32.52-13.42L32.52-13.42L32.52-13.42Q32.64-13.50 32.99-13.50L32.99-13.50L32.99-13.50Q33.32-13.50 33.52-13.26L33.52-13.26L33.52-13.26Q33.72-13.01 33.72-12.77L33.72-12.77L33.72-12.77Q33.72-12.61 33.45-11.72L33.45-11.72L33.45-11.72Q32.64-8.96 32.18-6.37L32.18-6.37L31.91-4.78L31.91-4.78Q32.37-5.75 32.59-6.29L32.59-6.29L32.59-6.29Q33.34-8.05 33.98-9.37L33.98-9.37L33.98-9.37Q34.61-10.69 35.40-11.83L35.40-11.83L35.40-11.83Q36.59-13.53 37.61-13.53L37.61-13.53L37.61-13.53Q39.42-13.53 39.42-10.61L39.42-10.61L39.42-10.61Q39.42-9.99 39.26-9.02L39.26-9.02L39.26-9.02Q39.10-8.05 38.91-7.02L38.91-7.02L38.91-7.02Q38.53-5.05 38.42-4.32L38.42-4.32L38.23-3.08L38.23-3.08Q37.99-1.40 37.80-0.62L37.80-0.62L37.80-0.62Q37.61 0.16 37.26 0.16L37.26 0.16" fill="#f5542e" stroke="none" stroke-width="none" transform="translate(-94.73001098632812,10.006401367187504)" style="fill: rgb(0, 139, 110);"></path></g><g class="path" style="transform: scale(1); transform-origin: -49.18px 3.2414px; animation: 1s linear -0.521053s infinite normal forwards running beat-046874f4-92c2-486b-a29f-167cd6afe107;"><path d="M44.50 0.27L44.50 0.27Q43.63 0.27 43.15-0.01L43.15-0.01L43.15-0.01Q42.66-0.30 42.36-0.89L42.36-0.89L42.36-0.89Q41.80-1.94 41.80-3.43L41.80-3.43L41.80-3.43Q41.80-6.02 42.58-8.36L42.58-8.36L42.58-8.36Q43.36-10.69 44.71-12.29L44.71-12.29L44.71-12.29Q46.01-13.80 47.55-13.80L47.55-13.80L47.55-13.80Q48.36-13.80 48.83-13.14L48.83-13.14L48.83-13.14Q49.30-12.47 49.30-11.53L49.30-11.53L49.30-11.53Q49.30-9.88 48.45-8.67L48.45-8.67L48.45-8.67Q47.60-7.45 46.17-6.64L46.17-6.64L46.17-6.64Q44.93-5.91 43.15-5.18L43.15-5.18L43.09-3.24L43.09-3.24Q43.09-0.97 44.47-0.97L44.47-0.97L44.47-0.97Q45.04-0.97 45.56-1.19L45.56-1.19L45.56-1.19Q46.09-1.40 46.71-1.78L46.71-1.78L46.71-1.78Q47.44-2.21 47.74-2.21L47.74-2.21L47.74-2.21Q48.20-2.21 48.20-1.73L48.20-1.73L48.20-1.73Q48.20-1.38 47.53-0.89L47.53-0.89L47.53-0.89Q46.87-0.40 45.98-0.07L45.98-0.07L45.98-0.07Q45.09 0.27 44.50 0.27L44.50 0.27zM43.36-6.48L43.36-6.48Q45.17-7.21 46.12-7.78L46.12-7.78L46.12-7.78Q47.06-8.34 47.56-9.21L47.56-9.21L47.56-9.21Q48.06-10.07 48.06-11.47L48.06-11.47L48.06-11.47Q48.06-12.53 47.17-12.53L47.17-12.53L47.17-12.53Q46.39-12.53 45.33-11.10L45.33-11.10L45.33-11.10Q44.23-9.67 43.55-7.34L43.55-7.34L43.55-7.34Q43.36-6.70 43.36-6.48L43.36-6.48" fill="#f5542e" stroke="none" stroke-width="none" transform="translate(-94.73001098632812,10.006401367187504)" style="fill: rgb(0, 174, 222);"></path></g><g class="path" style="transform: scale(1); transform-origin: -39.45px 3.2814px; animation: 1s linear -0.486316s infinite normal forwards running beat-046874f4-92c2-486b-a29f-167cd6afe107;"><path d="M51.11 0.43L51.11 0.43Q50.73 0.43 50.73-0.05L50.73-0.05L51.35-3.27L52.49-8.96L52.49-8.96Q53.24-12.74 53.24-12.74L53.24-12.74L53.24-12.74Q53.35-13.34 53.54-13.61L53.54-13.61L53.54-13.61Q53.73-13.88 54.03-13.88L54.03-13.88L54.03-13.88Q54.30-13.88 54.45-13.74L54.45-13.74L54.45-13.74Q54.59-13.61 54.59-13.26L54.59-13.26L54.59-13.26Q54.59-12.64 54.22-11.37L54.22-11.37L54.22-11.37Q54.03-10.75 53.95-10.31L53.95-10.31L53.95-10.31Q53.84-9.94 53.70-9.46L53.70-9.46L53.70-9.46Q53.57-8.99 53.41-8.37L53.41-8.37L53.41-8.37Q54.13-10.02 54.78-11.00L54.78-11.00L54.78-11.00Q55.43-11.99 56.40-12.88L56.40-12.88L56.40-12.88Q57.32-13.66 58.24-13.66L58.24-13.66L58.24-13.66Q58.91-13.66 59.37-13.38L59.37-13.38L59.37-13.38Q59.83-13.10 59.83-12.72L59.83-12.72L59.83-12.72Q59.83-12.42 59.62-12.24L59.62-12.24L59.62-12.24Q59.40-12.07 59.08-12.07L59.08-12.07L59.08-12.07Q58.83-12.07 58.62-12.18L58.62-12.18L58.62-12.18Q58.45-12.31 58.19-12.31L58.19-12.31L58.19-12.31Q57.83-12.31 57.16-11.83L57.16-11.83L57.16-11.83Q55.89-10.91 55.01-9.41L55.01-9.41L55.01-9.41Q54.13-7.91 53.64-6.39L53.64-6.39L53.64-6.39Q53.14-4.86 52.57-2.70L52.57-2.70L52.33-1.70L52.33-1.70Q51.92 0.43 51.11 0.43L51.11 0.43" fill="#f5542e" stroke="none" stroke-width="none" transform="translate(-94.73001098632812,10.006401367187504)" style="fill: rgb(0, 103, 173);"></path></g><g class="path" style="transform: scale(1); transform-origin: -29.85px 3.2264px; animation: 1s linear -0.451579s infinite normal forwards running beat-046874f4-92c2-486b-a29f-167cd6afe107;"><path d="M68.82 0.05L68.82 0.05Q68.20 0.05 67.68-0.61L67.68-0.61L67.68-0.61Q67.15-1.27 67.15-2.02L67.15-2.02L67.15-2.02Q67.15-3.70 68.04-7.70L68.04-7.70L68.04-7.70Q67.36-6.24 66.30-4.71L66.30-4.71L66.30-4.71Q65.23-3.19 64.21-2.02L64.21-2.02L64.21-2.02Q63.18-0.86 62.69-0.51L62.69-0.51L62.69-0.51Q62.02 0 61.21 0L61.21 0L61.21 0Q59.67 0 59.67-1.94L59.67-1.94L59.67-1.94Q59.67-3.83 61.10-6.66L61.10-6.66L61.10-6.66Q62.53-9.48 64.50-11.56L64.50-11.56L64.50-11.56Q66.47-13.61 67.69-13.61L67.69-13.61L67.69-13.61Q68.93-13.61 69.09-12.53L69.09-12.53L69.09-12.53Q69.17-12.20 69.17-11.83L69.17-11.83L69.17-11.83Q69.31-11.91 69.47-11.91L69.47-11.91L69.47-11.91Q70.09-11.91 70.09-11.31L70.09-11.31L70.09-11.21L69.77-10.02L69.77-10.02Q69.39-8.67 68.98-6.02L68.98-6.02L68.98-6.02Q68.58-3.38 68.58-1.62L68.58-1.62L68.85-1.46L68.85-1.46Q69.50-1.05 69.50-0.65L69.50-0.65L69.50-0.65Q69.50-0.38 69.31-0.16L69.31-0.16L69.31-0.16Q69.12 0.05 68.82 0.05L68.82 0.05zM61.42-1.40L61.42-1.40Q61.72-1.40 61.91-1.59L61.91-1.59L61.91-1.59Q64.66-3.94 66.80-8.10L66.80-8.10L66.80-8.10Q67.72-9.83 67.95-10.37L67.95-10.37L67.95-10.37Q68.17-10.91 68.17-11.42L68.17-11.42L68.17-11.42Q68.17-11.69 68.04-11.91L68.04-11.91L68.04-11.91Q67.91-12.12 67.69-12.12L67.69-12.12L67.69-12.12Q67.42-12.12 66.99-11.88L66.99-11.88L66.99-11.88Q65.91-11.31 64.44-9.48L64.44-9.48L64.44-9.48Q62.96-7.64 62.02-5.59L62.02-5.59L62.02-5.59Q61.02-3.51 61.02-1.89L61.02-1.89L61.02-1.89Q61.02-1.40 61.42-1.40L61.42-1.40" fill="#f5542e" stroke="none" stroke-width="none" transform="translate(-94.73001098632812,10.006401367187504)" style="fill: rgb(245, 84, 46);"></path></g><g class="path" style="transform: scale(1); transform-origin: -18.59px 1.4464px; animation: 1s linear -0.416842s infinite normal forwards running beat-046874f4-92c2-486b-a29f-167cd6afe107;"><path d="M74.84 0.11L74.84 0.11Q73.90 0.11 73.43-0.38L73.43-0.38L73.43-0.38Q72.95-0.86 72.95-2.13L72.95-2.13L72.95-2.13Q72.95-2.83 73.12-3.75L73.12-3.75L73.36-5.29L73.66-6.56L73.82-7.29L74.17-8.78L74.17-8.78Q74.22-9.13 74.41-9.91L74.41-9.91L74.55-10.45L74.79-11.61L74.95-12.42L74.95-12.42Q73.90-12.42 73.01-12.29L73.01-12.29L73.01-12.29Q72.47-12.37 72.47-12.74L72.47-12.74L72.47-12.74Q72.47-13.01 72.68-13.26L72.68-13.26L72.68-13.26Q72.90-13.50 73.20-13.53L73.20-13.53L75.14-13.47L75.14-13.47Q75.14-13.47 75.28-14.15L75.28-14.15L75.28-14.15Q75.33-14.69 75.49-15.39L75.49-15.39L75.49-15.39Q75.65-16.09 75.90-16.63L75.90-16.63L75.90-16.63Q76.14-17.23 76.60-17.23L76.60-17.23L76.60-17.23Q77.03-17.23 77.03-16.74L77.03-16.74L77.03-16.58L77.03-16.58Q76.92-16.04 76.84-15.79L76.84-15.79L76.38-13.50L78.33-13.50L78.33-13.50Q79.35-13.50 79.60-13.34L79.60-13.34L79.60-13.34Q79.81-13.18 79.81-12.93L79.81-12.93L79.81-12.93Q79.81-12.50 79.42-12.38L79.42-12.38L79.42-12.38Q79.03-12.26 78.08-12.26L78.08-12.26L78.08-12.26Q77.22-12.26 76.17-12.34L76.17-12.34L76.17-12.34Q76.01-11.45 75.06-7.40L75.06-7.40L75.06-7.40Q74.20-3.73 74.20-2.75L74.20-2.75L74.20-2.75Q74.20-1.70 74.44-1.38L74.44-1.38L74.44-1.38Q74.57-1.16 75.01-1.16L75.01-1.16L75.01-1.16Q75.38-1.16 75.67-1.36L75.67-1.36L75.67-1.36Q75.95-1.57 76.25-1.92L76.25-1.92L76.25-1.92Q76.55-2.29 76.76-2.48L76.76-2.48L76.76-2.48Q76.98-2.67 77.22-2.67L77.22-2.67L77.22-2.67Q77.76-2.67 77.76-2.13L77.76-2.13L77.76-2.13Q77.76-1.86 77.22-1.24L77.22-1.24L77.22-1.24Q76.68-0.62 76.19-0.24L76.19-0.24L76.19-0.24Q75.76 0.11 74.84 0.11L74.84 0.11" fill="#f5542e" stroke="none" stroke-width="none" transform="translate(-94.73001098632812,10.006401367187504)" style="fill: rgb(242, 195, 39);"></path></g><g class="path" style="transform: scale(1); transform-origin: -12.165px 3.1364px; animation: 1s linear -0.382105s infinite normal forwards running beat-046874f4-92c2-486b-a29f-167cd6afe107;"><path d="M81.65 0.27L81.65 0.27Q80.73 0.27 80.73-1.22L80.73-1.22L80.73-1.22Q80.73-1.59 80.86-1.89L80.86-1.89L80.86-1.89Q81-2.35 81.11-2.94L81.11-2.94L81.51-4.75L82.05-7.13L82.05-7.13Q82.32-8.45 82.70-10.10L82.70-10.10L82.70-10.10Q82.75-10.26 82.81-10.64L82.81-10.64L82.81-10.64Q83.08-11.80 83.08-11.99L83.08-11.99L83.08-12.26L83.08-12.26Q83.08-12.47 82.89-13.15L82.89-13.15L82.89-13.15Q82.89-13.47 83.12-13.74L83.12-13.74L83.12-13.74Q83.35-14.01 83.67-14.01L83.67-14.01L83.67-14.01Q83.97-14.01 84.19-13.61L84.19-13.61L84.19-13.61Q84.40-13.20 84.40-12.72L84.40-12.72L84.40-12.72Q84.40-12.18 83.16-6.88L83.16-6.88L83.16-6.88Q81.92-1.59 81.92-1.27L81.92-1.27L81.92-1.27Q81.92-0.97 82.19-0.97L82.19-0.97L82.19-0.97Q82.32-0.97 82.67-1.32L82.67-1.32L82.67-1.32Q83.00-1.65 83.21-1.65L83.21-1.65L83.21-1.65Q83.65-1.65 83.65-1.11L83.65-1.11L83.65-1.11Q83.65-0.78 83.27-0.46L83.27-0.46L83.27-0.46Q82.89-0.14 82.40 0.07L82.40 0.07L82.40 0.07Q81.92 0.27 81.65 0.27L81.65 0.27" fill="#f5542e" stroke="none" stroke-width="none" transform="translate(-94.73001098632812,10.006401367187504)" style="fill: rgb(0, 139, 110);"></path></g><g class="path" style="transform: scale(1); transform-origin: -10.61px -7.1536px; animation: 1s linear -0.347368s infinite normal forwards running beat-046874f4-92c2-486b-a29f-167cd6afe107;"><path d="M84.38-16.04L84.38-16.04Q83.94-16.04 83.73-16.15L83.73-16.15L83.62-16.15L83.62-16.15Q82.84-16.15 82.84-17.06L82.84-17.06L82.84-17.06Q82.84-17.52 83.23-17.90L83.23-17.90L83.23-17.90Q83.62-18.28 84.08-18.28L84.08-18.28L84.08-18.28Q84.54-18.28 84.94-17.95L84.94-17.95L84.94-17.95Q85.40-17.50 85.40-17.06L85.40-17.06L85.40-17.06Q85.40-16.66 85.09-16.35L85.09-16.35L85.09-16.35Q84.78-16.04 84.38-16.04L84.38-16.04" fill="#f5542e" stroke="none" stroke-width="none" transform="translate(-94.73001098632812,10.006401367187504)" style="fill: rgb(0, 174, 222);"></path></g><g class="path" style="transform: scale(1); transform-origin: -3.24001px 3.3214px; animation: 1s linear -0.312632s infinite normal forwards running beat-046874f4-92c2-486b-a29f-167cd6afe107;"><path d="M94.07 0.16L94.07 0.16Q93.64 0.16 93.45 0L93.45 0L93.45 0Q93.26-0.16 93.31-0.57L93.31-0.57L94.64-8.45L94.64-8.45Q94.88-9.91 94.88-10.69L94.88-10.69L94.88-10.69Q94.88-11.99 94.15-11.99L94.15-11.99L94.15-11.99Q93.26-11.99 91.71-8.90L91.71-8.90L91.71-8.90Q90.15-5.80 88.51-1.92L88.51-1.92L88.13-1.05L88.13-1.05Q87.64 0 87.16 0L87.16 0L87.16 0Q86.89 0 86.82-0.12L86.82-0.12L86.82-0.12Q86.75-0.24 86.75-0.65L86.75-0.65L86.75-0.65Q86.75-1.05 87.82-6.88L87.82-6.88L87.82-6.88Q88.88-12.72 89.05-13.01L89.05-13.01L89.05-13.01Q89.21-13.34 89.33-13.42L89.33-13.42L89.33-13.42Q89.45-13.50 89.80-13.50L89.80-13.50L89.80-13.50Q90.13-13.50 90.33-13.26L90.33-13.26L90.33-13.26Q90.53-13.01 90.53-12.77L90.53-12.77L90.53-12.77Q90.53-12.61 90.26-11.72L90.26-11.72L90.26-11.72Q89.45-8.96 88.99-6.37L88.99-6.37L88.72-4.78L88.72-4.78Q89.18-5.75 89.40-6.29L89.40-6.29L89.40-6.29Q90.15-8.05 90.79-9.37L90.79-9.37L90.79-9.37Q91.42-10.69 92.21-11.83L92.21-11.83L92.21-11.83Q93.39-13.53 94.42-13.53L94.42-13.53L94.42-13.53Q96.23-13.53 96.23-10.61L96.23-10.61L96.23-10.61Q96.23-9.99 96.07-9.02L96.07-9.02L96.07-9.02Q95.90-8.05 95.72-7.02L95.72-7.02L95.72-7.02Q95.34-5.05 95.23-4.32L95.23-4.32L95.04-3.08L95.04-3.08Q94.80-1.40 94.61-0.62L94.61-0.62L94.61-0.62Q94.42 0.16 94.07 0.16L94.07 0.16" fill="#f5542e" stroke="none" stroke-width="none" transform="translate(-94.73001098632812,10.006401367187504)" style="fill: rgb(0, 103, 173);"></path></g><g class="path" style="transform: scale(1); transform-origin: 7.31499px 8.6714px; animation: 1s linear -0.277895s infinite normal forwards running beat-046874f4-92c2-486b-a29f-167cd6afe107;"><path d="M99.52 11.07L99.52 11.07Q98.20 11.07 97.34 10.18L97.34 10.18L97.34 10.18Q96.47 9.29 96.47 7.86L96.47 7.86L96.47 7.86Q96.47 6.67 97.05 5.70L97.05 5.70L97.05 5.70Q97.63 4.72 98.43 4.01L98.43 4.01L98.43 4.01Q99.23 3.29 100.52 2.35L100.52 2.35L100.52 2.35Q100.68 2.24 100.82 2.15L100.82 2.15L100.82 2.15Q100.95 2.05 101.03 2.00L101.03 2.00L101.03 2.00Q102.20 1.16 103.38 0.19L103.38 0.19L103.38 0.19Q103.57-0.68 103.92-2.27L103.92-2.27L103.92-2.27Q104.27-3.86 104.49-4.67L104.49-4.67L104.49-4.67Q103.76-2.56 102.72-1.20L102.72-1.20L102.72-1.20Q101.68 0.16 100.63 0.16L100.63 0.16L100.63 0.16Q99.63 0.16 99.08-0.55L99.08-0.55L99.08-0.55Q98.52-1.27 98.52-2.54L98.52-2.54L98.52-2.54Q98.52-4.91 99.40-7.48L99.40-7.48L99.40-7.48Q100.28-10.04 101.79-11.88L101.79-11.88L101.79-11.88Q103.28-13.74 105.14-13.74L105.14-13.74L105.14-13.74Q106.00-13.74 106.79-13.31L106.79-13.31L106.79-13.31Q106.95-13.39 107.14-13.39L107.14-13.39L107.14-13.39Q107.57-13.39 107.57-12.96L107.57-12.96L107.57-12.96Q107.57-12.58 107.35-11.88L107.35-11.88L107.35-11.88Q107.14-11.18 107.08-11.02L107.08-11.02L107.08-11.02Q106.73-9.75 105.92-6.18L105.92-6.18L104.73-0.70L104.73-0.70Q105.00-0.89 105.89-1.65L105.89-1.65L105.89-1.65Q106.00-1.73 106.30-1.98L106.30-1.98L106.30-1.98Q106.60-2.24 106.80-2.36L106.80-2.36L106.80-2.36Q107.00-2.48 107.14-2.48L107.14-2.48L107.14-2.48Q107.62-2.48 107.62-2.02L107.62-2.02L107.62-2.02Q107.62-1.70 107.41-1.48L107.41-1.48L107.41-1.48Q106.00-0.40 104.57 0.62L104.57 0.62L103.79 4.59L103.79 4.59Q103.01 8.61 101.76 9.99L101.76 9.99L101.76 9.99Q100.79 11.07 99.52 11.07L99.52 11.07zM100.74-1.08L100.74-1.08Q101.33-1.08 102.06-1.86L102.06-1.86L102.06-1.86Q102.79-2.65 103.48-3.98L103.48-3.98L103.48-3.98Q104.17-5.32 104.63-6.86L104.63-6.86L105.68-10.53L106.16-12.31L106.16-12.31Q105.79-12.66 105.11-12.66L105.11-12.66L105.11-12.66Q103.95-12.66 102.69-11.12L102.69-11.12L102.69-11.12Q101.44-9.58 100.58-7.24L100.58-7.24L100.58-7.24Q99.74-4.91 99.74-3.00L99.74-3.00L99.74-3.00Q99.74-1.08 100.74-1.08L100.74-1.08zM99.47 9.72L99.47 9.72Q100.41 9.72 101.03 8.96L101.03 8.96L101.03 8.96Q101.66 8.21 102.02 6.98L102.02 6.98L102.02 6.98Q102.38 5.75 102.76 3.78L102.76 3.78L103.17 1.65L103.17 1.65Q102.20 2.46 101.22 3.19L101.22 3.19L101.22 3.19Q99.74 4.29 98.77 5.41L98.77 5.41L98.77 5.41Q97.79 6.53 97.79 7.99L97.79 7.99L97.79 7.99Q97.79 8.86 98.24 9.29L98.24 9.29L98.24 9.29Q98.69 9.72 99.47 9.72L99.47 9.72" fill="#f5542e" stroke="none" stroke-width="none" transform="translate(-94.73001098632812,10.006401367187504)" style="fill: rgb(245, 84, 46);"></path></g><g class="path" style="transform: scale(1); transform-origin: 25.015px 8.4964px; animation: 1s linear -0.243158s infinite normal forwards running beat-046874f4-92c2-486b-a29f-167cd6afe107;"><path d="M114.29 11.07L114.29 11.07Q113.89 11.07 113.83 10.53L113.83 10.53L113.83 10.53Q114.64 7.45 115.24 4.37L115.24 4.37L116.05 0.14L116.86-4.10L117.07-5.24L117.07-5.24Q118.15-10.85 118.53-12.74L118.53-12.74L118.53-13.34L118.53-13.34Q118.53-13.61 118.77-13.85L118.77-13.85L118.77-13.85Q119.02-14.09 119.34-14.09L119.34-14.09L119.34-14.09Q119.64-14.09 119.80-13.86L119.80-13.86L119.80-13.86Q119.96-13.63 119.96-13.37L119.96-13.37L119.96-13.37Q119.96-12.99 119.83-12.58L119.83-12.58L119.72-12.23L119.72-12.23Q119.66-12.02 119.66-11.93L119.66-11.93L119.29-9.99L119.29-9.99Q121.23-13.69 123.44-13.69L123.44-13.69L123.44-13.69Q124.61-13.69 125.13-13.00L125.13-13.00L125.13-13.00Q125.66-12.31 125.66-10.94L125.66-10.94L125.66-10.94Q125.66-8.34 124.93-5.78L124.93-5.78L124.93-5.78Q124.20-3.21 122.82-1.46L122.82-1.46L122.82-1.46Q121.42 0.35 119.48 0.35L119.48 0.35L119.48 0.35Q118.72 0.35 118.27 0.04L118.27 0.04L118.27 0.04Q117.83-0.27 117.56-1.03L117.56-1.03L117.23 0.57L117.23 0.57Q116.59 3.54 116.29 5.05L116.29 5.05L116.29 5.05Q115.64 8.34 115.05 10.53L115.05 10.53L115.05 10.53Q114.80 11.07 114.29 11.07L114.29 11.07zM119.66-0.92L119.66-0.92Q121.07-0.92 122.28-2.70L122.28-2.70L122.28-2.70Q123.80-5.00 124.28-8.72L124.28-8.72L124.28-8.72Q124.42-9.88 124.42-10.72L124.42-10.72L124.42-10.72Q124.42-12.47 123.55-12.47L123.55-12.47L123.55-12.47Q122.69-12.47 121.58-11.23L121.58-11.23L121.58-11.23Q120.07-9.53 119.10-7.14L119.10-7.14L119.10-7.14Q118.13-4.75 118.13-3.00L118.13-3.00L118.13-3.00Q118.13-0.92 119.66-0.92L119.66-0.92" fill="#f5542e" stroke="none" stroke-width="none" transform="translate(-94.73001098632812,10.006401367187504)" style="fill: rgb(242, 195, 39);"></path></g><g class="path" style="transform: scale(1); transform-origin: 35.68px -2.9236px; animation: 1s linear -0.208421s infinite normal forwards running beat-046874f4-92c2-486b-a29f-167cd6afe107;"><path d="M129.47 0.22L129.47 0.22Q128.49 0.22 127.99-0.30L127.99-0.30L127.99-0.30Q127.49-0.81 127.49-1.65L127.49-1.65L127.49-1.65Q127.49-2.38 127.58-2.98L127.58-2.98L127.58-2.98Q127.66-3.59 127.87-4.89L127.87-4.89L127.87-4.89Q128.30-7.40 128.98-10.61L128.98-10.61L129.68-14.01L129.68-14.01Q132.00-25.11 132.17-25.65L132.17-25.65L132.17-25.65Q132.30-26.08 132.76-26.08L132.76-26.08L132.76-26.08Q133.33-26.08 133.33-25.46L133.33-25.46L133.22-24.76L133.22-24.76Q133.08-23.89 132.92-23.15L132.92-23.15L132.92-23.15Q132.76-22.41 132.33-20.30L132.33-20.30L132.33-20.30Q131.60-16.90 130.48-11.56L130.48-11.56L130.48-11.56Q129.36-6.21 129.06-4.43L129.06-4.43L129.06-4.43Q128.71-2.48 128.71-2.00L128.71-2.00L128.71-2.00Q128.71-1.59 128.95-1.27L128.95-1.27L128.95-1.27Q129.20-0.94 129.55-0.94L129.55-0.94L129.55-0.94Q129.92-0.94 130.26-1.09L130.26-1.09L130.26-1.09Q130.60-1.24 130.71-1.30L130.71-1.30L131.17-1.54L131.17-1.54Q131.38-1.65 131.44-1.65L131.44-1.65L131.44-1.65Q132.03-1.65 132.03-1.05L132.03-1.05L132.03-1.05Q132.03-0.46 131.27-0.12L131.27-0.12L131.27-0.12Q130.52 0.22 129.47 0.22L129.47 0.22" fill="#f5542e" stroke="none" stroke-width="none" transform="translate(-94.73001098632812,10.006401367187504)" style="fill: rgb(0, 139, 110);"></path></g><g class="path" style="transform: scale(1); transform-origin: 42.77px 3.0664px; animation: 1s linear -0.173684s infinite normal forwards running beat-046874f4-92c2-486b-a29f-167cd6afe107;"><path d="M134.14-2.00L134.14-2.00Q134.14-2.35 134.33-2.48L134.33-2.48L134.33-2.48Q134.51-2.62 134.81-2.67L134.81-2.67L134.81-2.67Q135.05-2.67 135.20-2.51L135.20-2.51L135.20-2.51Q135.35-2.35 135.57-2.00L135.57-2.00L135.57-2.00Q135.78-1.62 135.93-1.47L135.93-1.47L135.93-1.47Q136.08-1.32 136.46-1.32L136.46-1.32L136.46-1.32Q137.32-1.32 137.88-1.86L137.88-1.86L137.88-1.86Q138.43-2.40 138.43-3.13L138.43-3.13L138.43-3.13Q138.43-3.92 138.11-4.78L138.11-4.78L138.11-4.78Q137.78-5.64 137.11-6.94L137.11-6.94L137.11-6.94Q135.76-9.37 135.76-10.80L135.76-10.80L135.76-10.80Q135.76-12.23 136.47-13.10L136.47-13.10L136.47-13.10Q137.19-13.96 138.43-13.96L138.43-13.96L138.43-13.96Q139.29-13.96 140.08-13.47L140.08-13.47L140.08-13.47Q140.86-12.99 140.86-12.26L140.86-12.26L140.86-12.26Q140.86-11.47 140.21-11.47L140.21-11.47L140.21-11.47Q140.02-11.47 139.90-11.58L139.90-11.58L139.90-11.58Q139.78-11.69 139.67-11.84L139.67-11.84L139.67-11.84Q139.56-11.99 139.51-12.04L139.51-12.04L139.51-12.04Q139.02-12.61 138.43-12.61L138.43-12.61L138.43-12.61Q137.11-12.61 137.11-11.07L137.11-11.07L137.11-11.07Q137.11-10.23 137.43-9.37L137.43-9.37L137.43-9.37Q137.75-8.51 138.40-7.18L138.40-7.18L138.40-7.18Q139.02-5.89 139.35-5.02L139.35-5.02L139.35-5.02Q139.67-4.16 139.67-3.38L139.67-3.38L139.67-3.38Q139.67-2.00 138.83-1.05L138.83-1.05L138.83-1.05Q138.00-0.11 136.49 0.08L136.49 0.08L136.49 0.08Q135.54 0.08 134.84-0.58L134.84-0.58L134.84-0.58Q134.14-1.24 134.14-2.00L134.14-2.00" fill="#f5542e" stroke="none" stroke-width="none" transform="translate(-94.73001098632812,10.006401367187504)" style="fill: rgb(0, 174, 222);"></path></g><g class="path" style="transform: scale(1); transform-origin: 62.21px 3.0014px; animation: 1s linear -0.138947s infinite normal forwards running beat-046874f4-92c2-486b-a29f-167cd6afe107;"><path d="M158.36 0.19L158.36 0.19Q157.73 0.19 157.73-0.89L157.73-0.89L157.73-1.54L157.73-1.54Q157.73-1.89 157.71-2.02L157.71-2.02L157.71-2.02Q156.79-6.97 156.49-9.48L156.49-9.48L156.49-9.48Q155.98-8.34 155.03-5.75L155.03-5.75L155.03-5.75Q153.60-1.84 152.85-0.27L152.85-0.27L152.85-0.27Q152.58 0.08 152.23 0.08L152.23 0.08L152.23 0.08Q151.66 0.08 151.66-1.03L151.66-1.03L151.66-1.03Q151.23-2.86 150.69-6.97L150.69-6.97L150.69-6.97Q150.42-8.99 150.15-10.71L150.15-10.71L150.15-10.71Q149.88-12.42 149.80-12.85L149.80-12.85L149.80-12.85Q149.80-13.04 150.01-13.28L150.01-13.28L150.01-13.28Q150.23-13.53 150.47-13.53L150.47-13.53L150.47-13.53Q151.04-13.53 151.23-12.66L151.23-12.66L151.23-12.66Q151.28-12.42 151.47-10.66L151.47-10.66L151.47-10.66Q151.85-7.37 152.16-5.22L152.16-5.22L152.16-5.22Q152.47-3.08 152.74-2.70L152.74-2.70L153.58-4.97L153.58-4.97Q155.87-10.99 156.30-13.12L156.30-13.12L156.30-13.12Q156.41-13.63 156.92-13.63L156.92-13.63L156.92-13.63Q157.22-13.63 157.34-13.49L157.34-13.49L157.34-13.49Q157.46-13.34 157.52-13.01L157.52-13.01L157.52-13.01Q158.14-6.67 158.98-2.29L158.98-2.29L158.98-2.29Q160.73-4.70 161.81-6.79L161.81-6.79L161.81-6.79Q162.89-8.88 162.89-10.48L162.89-10.48L162.89-10.48Q162.89-11.64 162.30-12.37L162.30-12.37L162.30-12.37Q162.22-12.47 161.73-12.77L161.73-12.77L161.73-12.77Q160.92-13.15 160.92-13.50L160.92-13.50L160.92-13.50Q160.92-13.74 161.15-13.96L161.15-13.96L161.15-13.96Q161.38-14.18 161.68-14.20L161.68-14.20L161.68-14.20Q162.78-14.18 163.43-13.11L163.43-13.11L163.43-13.11Q164.08-12.04 164.08-10.39L164.08-10.39L164.08-10.39Q164.08-6.91 160.30-2.16L160.30-2.16L160.30-2.16Q160.06-1.75 160.00-1.65L160.00-1.65L160.00-1.65Q159.54-0.81 159.17-0.31L159.17-0.31L159.17-0.31Q158.79 0.19 158.36 0.19L158.36 0.19" fill="#f5542e" stroke="none" stroke-width="none" transform="translate(-94.73001098632812,10.006401367187504)" style="fill: rgb(0, 103, 173);"></path></g><g class="path" style="transform: scale(1); transform-origin: 75.13px 3.2264px; animation: 1s linear -0.104211s infinite normal forwards running beat-046874f4-92c2-486b-a29f-167cd6afe107;"><path d="M173.80 0.05L173.80 0.05Q173.18 0.05 172.65-0.61L172.65-0.61L172.65-0.61Q172.13-1.27 172.13-2.02L172.13-2.02L172.13-2.02Q172.13-3.70 173.02-7.70L173.02-7.70L173.02-7.70Q172.34-6.24 171.27-4.71L171.27-4.71L171.27-4.71Q170.21-3.19 169.18-2.02L169.18-2.02L169.18-2.02Q168.16-0.86 167.67-0.51L167.67-0.51L167.67-0.51Q167.00 0 166.19 0L166.19 0L166.19 0Q164.65 0 164.65-1.94L164.65-1.94L164.65-1.94Q164.65-3.83 166.08-6.66L166.08-6.66L166.08-6.66Q167.51-9.48 169.48-11.56L169.48-11.56L169.48-11.56Q171.45-13.61 172.67-13.61L172.67-13.61L172.67-13.61Q173.91-13.61 174.07-12.53L174.07-12.53L174.07-12.53Q174.15-12.20 174.15-11.83L174.15-11.83L174.15-11.83Q174.29-11.91 174.45-11.91L174.45-11.91L174.45-11.91Q175.07-11.91 175.07-11.31L175.07-11.31L175.07-11.21L174.74-10.02L174.74-10.02Q174.37-8.67 173.96-6.02L173.96-6.02L173.96-6.02Q173.56-3.38 173.56-1.62L173.56-1.62L173.83-1.46L173.83-1.46Q174.47-1.05 174.47-0.65L174.47-0.65L174.47-0.65Q174.47-0.38 174.29-0.16L174.29-0.16L174.29-0.16Q174.10 0.05 173.80 0.05L173.80 0.05zM166.40-1.40L166.40-1.40Q166.70-1.40 166.89-1.59L166.89-1.59L166.89-1.59Q169.64-3.94 171.77-8.10L171.77-8.10L171.77-8.10Q172.69-9.83 172.92-10.37L172.92-10.37L172.92-10.37Q173.15-10.91 173.15-11.42L173.15-11.42L173.15-11.42Q173.15-11.69 173.02-11.91L173.02-11.91L173.02-11.91Q172.88-12.12 172.67-12.12L172.67-12.12L172.67-12.12Q172.40-12.12 171.96-11.88L171.96-11.88L171.96-11.88Q170.88-11.31 169.41-9.48L169.41-9.48L169.41-9.48Q167.94-7.64 167.00-5.59L167.00-5.59L167.00-5.59Q166.00-3.51 166.00-1.89L166.00-1.89L166.00-1.89Q166.00-1.40 166.40-1.40L166.40-1.40" fill="#f5542e" stroke="none" stroke-width="none" transform="translate(-94.73001098632812,10.006401367187504)" style="fill: rgb(245, 84, 46);"></path></g><g class="path" style="transform: scale(1); transform-origin: 84.28px 3.1364px; animation: 1s linear -0.0694737s infinite normal forwards running beat-046874f4-92c2-486b-a29f-167cd6afe107;"><path d="M178.09 0.27L178.09 0.27Q177.17 0.27 177.17-1.22L177.17-1.22L177.17-1.22Q177.17-1.59 177.31-1.89L177.31-1.89L177.31-1.89Q177.44-2.35 177.55-2.94L177.55-2.94L177.96-4.75L178.50-7.13L178.50-7.13Q178.77-8.45 179.15-10.10L179.15-10.10L179.15-10.10Q179.20-10.26 179.25-10.64L179.25-10.64L179.25-10.64Q179.52-11.80 179.52-11.99L179.52-11.99L179.52-12.26L179.52-12.26Q179.52-12.47 179.33-13.15L179.33-13.15L179.33-13.15Q179.33-13.47 179.56-13.74L179.56-13.74L179.56-13.74Q179.79-14.01 180.12-14.01L180.12-14.01L180.12-14.01Q180.41-14.01 180.63-13.61L180.63-13.61L180.63-13.61Q180.85-13.20 180.85-12.72L180.85-12.72L180.85-12.72Q180.85-12.18 179.60-6.88L179.60-6.88L179.60-6.88Q178.36-1.59 178.36-1.27L178.36-1.27L178.36-1.27Q178.36-0.97 178.63-0.97L178.63-0.97L178.63-0.97Q178.77-0.97 179.12-1.32L179.12-1.32L179.12-1.32Q179.44-1.65 179.66-1.65L179.66-1.65L179.66-1.65Q180.09-1.65 180.09-1.11L180.09-1.11L180.09-1.11Q180.09-0.78 179.71-0.46L179.71-0.46L179.71-0.46Q179.33-0.14 178.85 0.07L178.85 0.07L178.85 0.07Q178.36 0.27 178.09 0.27L178.09 0.27" fill="#f5542e" stroke="none" stroke-width="none" transform="translate(-94.73001098632812,10.006401367187504)" style="fill: rgb(242, 195, 39);"></path></g><g class="path" style="transform: scale(1); transform-origin: 85.835px -7.1536px; animation: 1s linear -0.0347368s infinite normal forwards running beat-046874f4-92c2-486b-a29f-167cd6afe107;"><path d="M180.82-16.04L180.82-16.04Q180.39-16.04 180.17-16.15L180.17-16.15L180.06-16.15L180.06-16.15Q179.28-16.15 179.28-17.06L179.28-17.06L179.28-17.06Q179.28-17.52 179.67-17.90L179.67-17.90L179.67-17.90Q180.06-18.28 180.52-18.28L180.52-18.28L180.52-18.28Q180.98-18.28 181.39-17.95L181.39-17.95L181.39-17.95Q181.85-17.50 181.85-17.06L181.85-17.06L181.85-17.06Q181.85-16.66 181.53-16.35L181.53-16.35L181.53-16.35Q181.22-16.04 180.82-16.04L180.82-16.04" fill="#f5542e" stroke="none" stroke-width="none" transform="translate(-94.73001098632812,10.006401367187504)" style="fill: rgb(0, 139, 110);"></path></g><g class="path" style="transform: scale(1); transform-origin: 92.165px 1.4464px; animation: 1s linear 0s infinite normal forwards running beat-046874f4-92c2-486b-a29f-167cd6afe107;"><path d="M185.60 0.11L185.60 0.11Q184.65 0.11 184.18-0.38L184.18-0.38L184.18-0.38Q183.71-0.86 183.71-2.13L183.71-2.13L183.71-2.13Q183.71-2.83 183.87-3.75L183.87-3.75L184.11-5.29L184.41-6.56L184.57-7.29L184.92-8.78L184.92-8.78Q184.98-9.13 185.17-9.91L185.17-9.91L185.30-10.45L185.54-11.61L185.71-12.42L185.71-12.42Q184.65-12.42 183.76-12.29L183.76-12.29L183.76-12.29Q183.22-12.37 183.22-12.74L183.22-12.74L183.22-12.74Q183.22-13.01 183.44-13.26L183.44-13.26L183.44-13.26Q183.65-13.50 183.95-13.53L183.95-13.53L185.90-13.47L185.90-13.47Q185.90-13.47 186.03-14.15L186.03-14.15L186.03-14.15Q186.08-14.69 186.25-15.39L186.25-15.39L186.25-15.39Q186.41-16.09 186.65-16.63L186.65-16.63L186.65-16.63Q186.89-17.23 187.35-17.23L187.35-17.23L187.35-17.23Q187.78-17.23 187.78-16.74L187.78-16.74L187.78-16.58L187.78-16.58Q187.68-16.04 187.60-15.79L187.60-15.79L187.14-13.50L189.08-13.50L189.08-13.50Q190.11-13.50 190.35-13.34L190.35-13.34L190.35-13.34Q190.57-13.18 190.57-12.93L190.57-12.93L190.57-12.93Q190.57-12.50 190.17-12.38L190.17-12.38L190.17-12.38Q189.78-12.26 188.84-12.26L188.84-12.26L188.84-12.26Q187.97-12.26 186.92-12.34L186.92-12.34L186.92-12.34Q186.76-11.45 185.81-7.40L185.81-7.40L185.81-7.40Q184.95-3.73 184.95-2.75L184.95-2.75L184.95-2.75Q184.95-1.70 185.19-1.38L185.19-1.38L185.19-1.38Q185.33-1.16 185.76-1.16L185.76-1.16L185.76-1.16Q186.14-1.16 186.42-1.36L186.42-1.36L186.42-1.36Q186.71-1.57 187.00-1.92L187.00-1.92L187.00-1.92Q187.30-2.29 187.52-2.48L187.52-2.48L187.52-2.48Q187.73-2.67 187.97-2.67L187.97-2.67L187.97-2.67Q188.51-2.67 188.51-2.13L188.51-2.13L188.51-2.13Q188.51-1.86 187.97-1.24L187.97-1.24L187.97-1.24Q187.43-0.62 186.95-0.24L186.95-0.24L186.95-0.24Q186.52 0.11 185.60 0.11L185.60 0.11" fill="#f5542e" stroke="none" stroke-width="none" transform="translate(-94.73001098632812,10.006401367187504)" style="fill: rgb(0, 174, 222);"></path></g></g>
</g>
</g>
<style id="beat-046874f4-92c2-486b-a29f-167cd6afe107" data-anikit="">@keyframes beat-046874f4-92c2-486b-a29f-167cd6afe107
{
  0% {
    animation-timing-function: cubic-bezier(0.1028,0.2484,0.1372,0.849);
    transform: scale(1);
  }
  34% {
    animation-timing-function: cubic-bezier(0.7116,0.2095,0.8159,0.6876);
    transform: scale(1.2);
  }
  68% {
    animation-timing-function: cubic-bezier(0.1475,0.2888,0.294,0.883);
    transform: scale(1.0268);
  }
  84% {
    animation-timing-function: cubic-bezier(0.8176,0.2193,0.867,0.6889);
    transform: scale(1.0932);
  }
  100% {
    transform: scale(1);
  }
}</style></svg>