<?xml version="1.0" encoding="utf-8"?>
<svg xmlns="http://www.w3.org/2000/svg" style="margin: auto; background: none; display: block; shape-rendering: auto;" width="101" height="28" preserveAspectRatio="xMidYMid">
<style type="text/css">
  text {
    text-anchor: middle; font-size: 18px; opacity: 0;
  }
</style>
<g style="transform-origin: 50.5px 14px; transform: scale(0.666667);">
<g transform="translate(50.5,14)">
  <g transform="translate(0,0)"><g class="path" style="transform: scale(1); transform-origin: -58.315px -2.02996px; animation: 1s linear -0.612857s infinite normal forwards running beat-a23b6612-c809-45a0-a2f1-5641b6fc2422;"><path d="M11.31-8.23L11.31-8.23L11.31-8.23Q9.80-8.23 9.80-8.75L9.80-8.75L9.80-8.75Q9.80-9.34 11.66-9.68L11.66-9.68L11.66-9.68Q13.53-10.02 15.44-10.02L15.44-10.02L15.44-10.02Q17.36-10.02 18.23-9.91L18.23-9.91L18.23-9.91Q19.09-9.80 19.35-9.61L19.35-9.61L19.35-9.61Q19.60-9.42 19.60-9.07L19.60-9.07L19.60-9.07Q19.60-4.21 17.28-1.92L17.28-1.92L17.28-1.92Q14.96 0.38 10.60 0.38L10.60 0.38L10.60 0.38Q6.24 0.38 3.77-1.75L3.77-1.75L3.77-1.75Q1.30-3.89 1.30-7.64L1.30-7.64L1.30-7.64Q1.30-12.82 4.40-16.05L4.40-16.05L4.40-16.05Q7.51-19.28 12.12-19.28L12.12-19.28L12.12-19.28Q14.15-19.28 15.96-18.44L15.96-18.44L15.96-18.44Q17.77-17.60 18.17-16.28L18.17-16.28L18.17-16.28Q17.79-15.96 17.44-15.96L17.44-15.96L17.44-15.96Q17.09-15.96 16.59-16.12L16.59-16.12L16.59-16.12Q16.09-16.28 15.58-16.74L15.58-16.74L15.58-16.74Q15.07-17.20 14.01-17.67L14.01-17.67L14.01-17.67Q12.96-18.14 11.80-18.14L11.80-18.14L11.80-18.14Q8.21-18.14 5.58-15.08L5.58-15.08L5.58-15.08Q2.94-12.02 2.94-7.86L2.94-7.86L2.94-7.86Q2.94-4.56 5.36-2.70L5.36-2.70L5.36-2.70Q7.78-0.84 11.02-0.84L11.02-0.84L11.02-0.84Q14.71-0.84 16.25-3.13L16.25-3.13L16.25-3.13Q17.71-5.24 17.71-8.51L17.71-8.51L17.71-8.51Q17.50-8.69 17.14-8.69L17.14-8.69L17.14-8.69Q16.79-8.69 16.31-8.67L16.31-8.67L16.31-8.67Q15.07-8.61 13.45-8.42L13.45-8.42L13.45-8.42Q11.83-8.23 11.31-8.23" fill="#f05125" stroke="none" stroke-width="none" transform="translate(-68.7650146484375,7.420042310442247)" style="fill: rgb(240, 81, 37);"></path></g><g class="path" style="transform: scale(1); transform-origin: -41.615px 0.710042px; animation: 1s linear -0.565714s infinite normal forwards running beat-a23b6612-c809-45a0-a2f1-5641b6fc2422;"><path d="M23.52-5.48L23.52-5.48L23.52-5.48Q23.46-4.94 23.46-4.75L23.46-4.75L23.46-4.75Q23.46-3.13 24.45-2.24L24.45-2.24L24.45-2.24Q25.43-1.35 26.78-1.35L26.78-1.35L26.78-1.35Q28.13-1.35 28.98-1.73L28.98-1.73L28.98-1.73Q29.84-2.11 30.21-2.54L30.21-2.54L30.21-2.54Q31.19-3.75 32.00-3.75L32.00-3.75L32.00-3.75Q32.29-3.75 32.70-3.59L32.70-3.59L32.70-3.59Q32.43-2.27 30.66-1.17L30.66-1.17L30.66-1.17Q28.89-0.08 26.22-0.08L26.22-0.08L26.22-0.08Q24.33-0.08 22.96-1.28L22.96-1.28L22.96-1.28Q21.60-2.48 21.60-4.56L21.60-4.56L21.60-4.56Q21.60-6.64 22.42-8.60L22.42-8.60L22.42-8.60Q23.25-10.56 24.80-11.95L24.80-11.95L24.80-11.95Q26.35-13.34 27.96-13.34L27.96-13.34L27.96-13.34Q29.57-13.34 30.55-12.68L30.55-12.68L30.55-12.68Q31.54-12.02 31.54-10.75L31.54-10.75L31.54-10.75Q31.54-8.40 29.44-6.87L29.44-6.87L29.44-6.87Q27.35-5.35 25.00-5.35L25.00-5.35L25.00-5.35Q24.38-5.35 23.52-5.48zM25.57-6.37L25.57-6.37L25.57-6.37Q26.84-6.37 27.84-7.18L27.84-7.18L27.84-7.18Q28.84-7.99 29.25-8.88L29.25-8.88L29.25-8.88Q29.67-9.77 29.67-10.50L29.67-10.50L29.67-10.50Q29.67-11.23 29.11-11.79L29.11-11.79L29.11-11.79Q28.54-12.34 27.78-12.34L27.78-12.34L27.78-12.34Q26.43-12.34 25.29-10.48L25.29-10.48L25.29-10.48Q24.14-8.61 23.65-6.62L23.65-6.62L23.65-6.62Q24.84-6.37 25.57-6.37" fill="#f05125" stroke="none" stroke-width="none" transform="translate(-68.7650146484375,7.420042310442247)" style="fill: rgb(253, 184, 19);"></path></g><g class="path" style="transform: scale(1); transform-origin: -28.32px 0.710042px; animation: 1s linear -0.518571s infinite normal forwards running beat-a23b6612-c809-45a0-a2f1-5641b6fc2422;"><path d="M46.01-0.76L46.01-0.76L46.01-0.76Q45.52-0.24 44.90-0.24L44.90-0.24L44.90-0.24Q43.74-0.24 43.17-1.48L43.17-1.48L43.17-1.48Q42.61-2.73 42.51-4.51L42.51-4.51L42.51-4.51Q42.42-6.29 42.39-8.07L42.39-8.07L42.39-8.07Q42.36-9.86 42.11-11.10L42.11-11.10L42.11-11.10Q41.85-12.34 41.15-12.34L41.15-12.34L41.15-12.34Q40.20-12.34 39.54-10.64L39.54-10.64L39.54-10.64Q38.88-8.94 38.61-6.86L38.61-6.86L38.61-6.86Q37.85-1.05 37.15-0.35L37.15-0.35L37.15-0.35Q36.67-0.11 36.31-0.11L36.31-0.11L36.31-0.11Q35.96-0.11 35.72-0.19L35.72-0.19L35.72-0.19Q35.15-2.67 34.99-8.75L34.99-8.75L34.99-8.75Q34.94-11.77 34.88-12.66L34.88-12.66L34.88-12.66Q35.45-13.04 35.86-13.04L35.86-13.04L35.86-13.04Q36.26-13.04 36.50-12.96L36.50-12.96L36.50-12.96Q36.64-11.80 36.65-8.21L36.65-8.21L36.65-8.21Q36.67-4.62 36.69-4.08L36.69-4.08L36.69-4.08Q36.83-4.64 37.03-5.91L37.03-5.91L37.03-5.91Q37.23-7.18 37.39-8.01L37.39-8.01L37.39-8.01Q37.56-8.83 37.91-9.94L37.91-9.94L37.91-9.94Q38.26-11.04 38.69-11.70L38.69-11.70L38.69-11.70Q39.12-12.37 39.88-12.84L39.88-12.84L39.88-12.84Q40.63-13.31 41.58-13.31L41.58-13.31L41.58-13.31Q42.85-13.31 43.43-12.16L43.43-12.16L43.43-12.16Q44.01-11.02 44.06-9.31L44.06-9.31L44.06-9.31Q44.12-7.61 44.13-5.86L44.13-5.86L44.13-5.86Q44.14-4.10 44.56-2.65L44.56-2.65L44.56-2.65Q44.98-1.19 46.01-0.76" fill="#f05125" stroke="none" stroke-width="none" transform="translate(-68.7650146484375,7.420042310442247)" style="fill: rgb(127, 187, 66);"></path></g><g class="path" style="transform: scale(1); transform-origin: -15.995px 0.710042px; animation: 1s linear -0.471429s infinite normal forwards running beat-a23b6612-c809-45a0-a2f1-5641b6fc2422;"><path d="M49.14-5.48L49.14-5.48L49.14-5.48Q49.09-4.94 49.09-4.75L49.09-4.75L49.09-4.75Q49.09-3.13 50.07-2.24L50.07-2.24L50.07-2.24Q51.06-1.35 52.41-1.35L52.41-1.35L52.41-1.35Q53.76-1.35 54.61-1.73L54.61-1.73L54.61-1.73Q55.46-2.11 55.84-2.54L55.84-2.54L55.84-2.54Q56.81-3.75 57.62-3.75L57.62-3.75L57.62-3.75Q57.91-3.75 58.32-3.59L58.32-3.59L58.32-3.59Q58.05-2.27 56.28-1.17L56.28-1.17L56.28-1.17Q54.51-0.08 51.84-0.08L51.84-0.08L51.84-0.08Q49.95-0.08 48.59-1.28L48.59-1.28L48.59-1.28Q47.22-2.48 47.22-4.56L47.22-4.56L47.22-4.56Q47.22-6.64 48.05-8.60L48.05-8.60L48.05-8.60Q48.87-10.56 50.42-11.95L50.42-11.95L50.42-11.95Q51.98-13.34 53.58-13.34L53.58-13.34L53.58-13.34Q55.19-13.34 56.17-12.68L56.17-12.68L56.17-12.68Q57.16-12.02 57.16-10.75L57.16-10.75L57.16-10.75Q57.16-8.40 55.07-6.87L55.07-6.87L55.07-6.87Q52.97-5.35 50.63-5.35L50.63-5.35L50.63-5.35Q50.00-5.35 49.14-5.48zM51.19-6.37L51.19-6.37L51.19-6.37Q52.46-6.37 53.46-7.18L53.46-7.18L53.46-7.18Q54.46-7.99 54.88-8.88L54.88-8.88L54.88-8.88Q55.30-9.77 55.30-10.50L55.30-10.50L55.30-10.50Q55.30-11.23 54.73-11.79L54.73-11.79L54.73-11.79Q54.16-12.34 53.41-12.34L53.41-12.34L53.41-12.34Q52.06-12.34 50.91-10.48L50.91-10.48L50.91-10.48Q49.76-8.61 49.27-6.62L49.27-6.62L49.27-6.62Q50.46-6.37 51.19-6.37" fill="#f05125" stroke="none" stroke-width="none" transform="translate(-68.7650146484375,7.420042310442247)" style="fill: rgb(50, 160, 218);"></path></g><g class="path" style="transform: scale(1); transform-origin: -3.81501px 0.580042px; animation: 1s linear -0.424286s infinite normal forwards running beat-a23b6612-c809-45a0-a2f1-5641b6fc2422;"><path d="M63.18-2.65L63.18-2.65L63.26-1.11L63.26-1.11Q63.26-0.51 62.92-0.28L62.92-0.28L62.92-0.28Q62.59-0.05 62.25-0.05L62.25-0.05L62.25-0.05Q61.91-0.05 61.56-0.16L61.56-0.16L61.56-0.16Q60.97-3.29 60.66-7.96L60.66-7.96L60.66-7.96Q60.34-12.64 60.29-13.26L60.29-13.26L60.29-13.26Q60.70-13.63 61.14-13.63L61.14-13.63L61.14-13.63Q61.59-13.63 61.94-13.53L61.94-13.53L61.94-13.53Q62.05-12.74 62.10-10.07L62.10-10.07L62.10-10.07Q62.15-7.40 62.23-6.72L62.23-6.72L62.23-6.72Q62.61-8.99 63.59-10.96L63.59-10.96L63.59-10.96Q64.13-12.07 65.00-12.73L65.00-12.73L65.00-12.73Q65.88-13.39 66.89-13.39L66.89-13.39L66.89-13.39Q67.91-13.39 68.76-12.49L68.76-12.49L68.76-12.49Q69.61-11.58 69.61-10.85L69.61-10.85L69.61-10.85Q69.61-10.58 69.28-10.44L69.28-10.44L69.28-10.44Q68.96-10.29 68.57-10.29L68.57-10.29L68.57-10.29Q68.17-10.29 67.96-10.58L67.96-10.58L67.96-10.58Q67.74-10.88 67.66-11.25L67.66-11.25L67.66-11.25Q67.58-11.61 67.31-11.91L67.31-11.91L67.31-11.91Q67.04-12.20 66.58-12.20L66.58-12.20L66.58-12.20Q65.37-12.20 64.50-10.02L64.50-10.02L64.50-10.02Q63.18-6.75 63.18-2.65" fill="#f05125" stroke="none" stroke-width="none" transform="translate(-68.7650146484375,7.420042310442247)" style="fill: rgb(240, 81, 37);"></path></g><g class="path" style="transform: scale(1); transform-origin: 7.54999px 0.715043px; animation: 1s linear -0.377143s infinite normal forwards running beat-a23b6612-c809-45a0-a2f1-5641b6fc2422;"><path d="M79.49-7.78L79.49-7.78L79.35-4.67L79.35-4.67Q79.35-2.32 79.89-1.51L79.89-1.51L79.89-1.51Q80.22-0.97 80.78-0.97L80.78-0.97L80.78-0.97Q80.95-0.97 81.24-1.05L81.24-1.05L81.24-1.05Q81.81-1.22 82.19-0.89L82.19-0.89L82.19-0.89Q82.00 0.05 80.30 0.05L80.30 0.05L80.30 0.05Q79.14 0.05 78.76-0.92L78.76-0.92L78.76-0.92Q78.46-1.65 78.33-2.74L78.33-2.74L78.33-2.74Q78.19-3.83 78.11-4.24L78.11-4.24L78.11-4.24Q76.36-0.89 74.71-0.16L74.71-0.16L74.71-0.16Q73.87 0.22 72.77 0.22L72.77 0.22L72.77 0.22Q71.66 0.22 71.05-0.85L71.05-0.85L71.05-0.85Q70.44-1.92 70.44-3.97L70.44-3.97L70.44-3.97Q70.44-6.02 71.12-8.28L71.12-8.28L71.12-8.28Q71.79-10.53 73.09-12.08L73.09-12.08L73.09-12.08Q74.39-13.63 75.92-13.63L75.92-13.63L75.92-13.63Q78.14-13.63 78.87-11.80L78.87-11.80L78.87-11.80Q79.49-10.23 79.49-7.78zM72.87-8.65L72.87-8.65L72.87-8.65Q72.50-7.18 72.31-5.87L72.31-5.87L72.31-5.87Q72.12-4.56 72.12-3.55L72.12-3.55L72.12-3.55Q72.12-2.54 72.54-1.81L72.54-1.81L72.54-1.81Q72.95-1.08 73.63-1.08L73.63-1.08L73.63-1.08Q75.09-1.08 76.44-3.83L76.44-3.83L76.44-3.83Q77.79-6.59 77.79-8.96L77.79-8.96L77.79-8.96Q77.79-10.50 76.98-11.50L76.98-11.50L76.98-11.50Q76.44-12.15 75.56-12.15L75.56-12.15L75.56-12.15Q74.68-12.15 73.97-11.14L73.97-11.14L73.97-11.14Q73.25-10.13 72.87-8.65" fill="#f05125" stroke="none" stroke-width="none" transform="translate(-68.7650146484375,7.420042310442247)" style="fill: rgb(253, 184, 19);"></path></g><g class="path" style="transform: scale(1); transform-origin: 17.54px -2.52996px; animation: 1s linear -0.33s infinite normal forwards running beat-a23b6612-c809-45a0-a2f1-5641b6fc2422;"><path d="M83.11-11.31L83.11-11.31L83.11-11.31Q81.89-11.31 81.46-11.91L81.46-11.91L81.46-11.91Q81.46-12.34 81.82-12.58L81.82-12.58L81.82-12.58Q82.19-12.82 82.62-12.89L82.62-12.89L82.62-12.89Q83.05-12.96 84.02-13.01L84.02-13.01L84.02-13.01Q84.11-13.74 84.12-14.89L84.12-14.89L84.12-14.89Q84.13-16.04 84.16-16.85L84.16-16.85L84.16-16.85Q84.24-18.98 84.81-19.47L84.81-19.47L84.81-19.47Q85.05-19.68 85.33-19.68L85.33-19.68L85.33-19.68Q85.62-19.68 85.83-19.63L85.83-19.63L85.83-19.63Q85.91-17.68 85.91-17.28L85.91-17.28L85.75-13.23L85.75-13.23Q85.81-13.20 86.05-13.20L86.05-13.20L87.99-13.28L87.99-13.28Q90.10-13.28 90.10-12.64L90.10-12.64L90.10-12.64Q90.10-11.72 89.34-11.56L89.34-11.56L89.34-11.56Q88.99-11.47 88.52-11.47L88.52-11.47L88.52-11.47Q88.05-11.47 87.30-11.60L87.30-11.60L87.30-11.60Q86.56-11.72 86.24-11.72L86.24-11.72L86.24-11.72Q85.91-11.72 85.81-11.69L85.81-11.69L85.81-11.69Q85.73-10.91 85.73-10.14L85.73-10.14L85.73-10.14Q85.73-9.37 85.77-8.22L85.77-8.22L85.77-8.22Q85.81-7.07 85.98-5.48L85.98-5.48L85.98-5.48Q86.16-3.89 86.75-2.74L86.75-2.74L86.75-2.74Q87.34-1.59 88.26-1.59L88.26-1.59L88.26-1.59Q88.72-1.59 89.34-1.96L89.34-1.96L89.34-1.96Q89.96-2.32 90.30-2.32L90.30-2.32L90.30-2.32Q90.64-2.32 90.90-2.17L90.90-2.17L90.90-2.17Q91.15-2.02 91.15-1.84L91.15-1.84L91.15-1.84Q91.15-1.27 90.00-0.74L90.00-0.74L90.00-0.74Q88.86-0.22 88.05-0.22L88.05-0.22L88.05-0.22Q85.08-0.22 84.35-5.83L84.35-5.83L84.35-5.83Q84.13-7.45 84.02-11.39L84.02-11.39L84.02-11.39Q83.59-11.31 83.11-11.31" fill="#f05125" stroke="none" stroke-width="none" transform="translate(-68.7650146484375,7.420042310442247)" style="fill: rgb(127, 187, 66);"></path></g><g class="path" style="transform: scale(1); transform-origin: 25.035px -10.9px; animation: 1s linear -0.282857s infinite normal forwards running beat-a23b6612-c809-45a0-a2f1-5641b6fc2422;"><path d="M94.66-19.87L94.66-19.87L94.66-19.87Q94.64-19.25 94.64-18.50L94.64-18.50L94.64-18.50Q94.64-17.74 94.72-16.93L94.72-16.93L94.72-16.93Q94.34-16.50 93.69-16.50L93.69-16.50L93.69-16.50Q92.88-16.50 92.88-17.79L92.88-17.79L92.88-17.79Q92.88-17.85 92.88-18.20L92.88-18.20L92.88-18.20Q92.88-18.55 92.89-18.83L92.89-18.83L92.89-18.83Q92.91-19.12 92.99-19.49L92.99-19.49L92.99-19.49Q93.18-20.14 93.83-20.14L93.83-20.14L93.83-20.14Q94.47-20.14 94.66-19.87" fill="#f05125" stroke="none" stroke-width="none" transform="translate(-68.7650146484375,7.420042310442247)" style="fill: rgb(50, 160, 218);"></path></g><g class="path" style="transform: scale(1); transform-origin: 25.11px 0.765042px; animation: 1s linear -0.235714s infinite normal forwards running beat-a23b6612-c809-45a0-a2f1-5641b6fc2422;"><path d="M92.93-6.64L92.93-6.64L92.93-6.64Q92.93-11.93 93.47-12.74L93.47-12.74L93.47-12.74Q93.66-13.04 93.93-13.04L93.93-13.04L93.93-13.04Q94.20-13.04 94.82-12.74L94.82-12.74L94.82-12.74Q94.69-10.45 94.69-7.75L94.69-7.75L94.69-7.75Q94.69-7.75 94.74-1.78L94.74-1.78L94.74-1.78Q94.74-0.94 94.38-0.61L94.38-0.61L94.38-0.61Q94.01-0.27 93.70-0.27L93.70-0.27L93.70-0.27Q93.39-0.27 93.07-0.43L93.07-0.43L93.07-0.43Q92.93-3.94 92.93-6.64" fill="#f05125" stroke="none" stroke-width="none" transform="translate(-68.7650146484375,7.420042310442247)" style="fill: rgb(240, 81, 37);"></path></g><g class="path" style="transform: scale(1); transform-origin: 34.915px 0.710042px; animation: 1s linear -0.188571s infinite normal forwards running beat-a23b6612-c809-45a0-a2f1-5641b6fc2422;"><path d="M109.24-0.76L109.24-0.76L109.24-0.76Q108.76-0.24 108.14-0.24L108.14-0.24L108.14-0.24Q106.97-0.24 106.41-1.48L106.41-1.48L106.41-1.48Q105.84-2.73 105.75-4.51L105.75-4.51L105.75-4.51Q105.65-6.29 105.62-8.07L105.62-8.07L105.62-8.07Q105.60-9.86 105.34-11.10L105.34-11.10L105.34-11.10Q105.08-12.34 104.38-12.34L104.38-12.34L104.38-12.34Q103.44-12.34 102.78-10.64L102.78-10.64L102.78-10.64Q102.11-8.94 101.84-6.86L101.84-6.86L101.84-6.86Q101.09-1.05 100.39-0.35L100.39-0.35L100.39-0.35Q99.90-0.11 99.55-0.11L99.55-0.11L99.55-0.11Q99.20-0.11 98.96-0.19L98.96-0.19L98.96-0.19Q98.39-2.67 98.23-8.75L98.23-8.75L98.23-8.75Q98.17-11.77 98.12-12.66L98.12-12.66L98.12-12.66Q98.69-13.04 99.09-13.04L99.09-13.04L99.09-13.04Q99.50-13.04 99.74-12.96L99.74-12.96L99.74-12.96Q99.87-11.80 99.89-8.21L99.89-8.21L99.89-8.21Q99.90-4.62 99.93-4.08L99.93-4.08L99.93-4.08Q100.06-4.64 100.26-5.91L100.26-5.91L100.26-5.91Q100.47-7.18 100.63-8.01L100.63-8.01L100.63-8.01Q100.79-8.83 101.14-9.94L101.14-9.94L101.14-9.94Q101.49-11.04 101.93-11.70L101.93-11.70L101.93-11.70Q102.36-12.37 103.11-12.84L103.11-12.84L103.11-12.84Q103.87-13.31 104.81-13.31L104.81-13.31L104.81-13.31Q106.08-13.31 106.66-12.16L106.66-12.16L106.66-12.16Q107.24-11.02 107.30-9.31L107.30-9.31L107.30-9.31Q107.35-7.61 107.37-5.86L107.37-5.86L107.37-5.86Q107.38-4.10 107.80-2.65L107.80-2.65L107.80-2.65Q108.22-1.19 109.24-0.76" fill="#f05125" stroke="none" stroke-width="none" transform="translate(-68.7650146484375,7.420042310442247)" style="fill: rgb(253, 184, 19);"></path></g><g class="path" style="transform: scale(1); transform-origin: 46.365px 3.57004px; animation: 1s linear -0.141429s infinite normal forwards running beat-a23b6612-c809-45a0-a2f1-5641b6fc2422;"><path d="M115.72-13.50L115.72-13.50L115.72-13.50Q118.18-13.50 119.12-11.50L119.12-11.50L119.12-11.50Q119.64-10.45 119.96-9.50L119.96-9.50L119.96-9.50Q120.29-8.56 120.39-6.91L120.39-6.91L120.39-6.91Q120.56-4.40 120.56-1.20L120.56-1.20L120.56-1.20Q120.56 2.00 119.03 3.90L119.03 3.90L119.03 3.90Q117.50 5.80 114.57 5.80L114.57 5.80L114.57 5.80Q111.65 5.80 109.70 3.92L109.70 3.92L109.70 3.92Q110.24 3.38 110.88 3.38L110.88 3.38L110.88 3.38Q111.51 3.38 112.63 3.93L112.63 3.93L112.63 3.93Q113.75 4.48 115.02 4.48L115.02 4.48L115.02 4.48Q116.29 4.48 117.13 3.90L117.13 3.90L117.13 3.90Q117.96 3.32 118.37 2.27L118.37 2.27L118.37 2.27Q119.04 0.40 119.04-2.32L119.04-2.32L119.04-2.32Q119.04-2.73 118.96-5.32L118.96-5.32L118.96-5.32Q118.23-3.10 116.88-1.66L116.88-1.66L116.88-1.66Q115.53-0.22 113.83-0.22L113.83-0.22L113.83-0.22Q112.13-0.22 111.33-1.74L111.33-1.74L111.33-1.74Q110.54-3.27 110.54-5.21L110.54-5.21L110.54-5.21Q110.54-7.16 111.08-9.00L111.08-9.00L111.08-9.00Q111.62-10.85 112.83-12.18L112.83-12.18L112.83-12.18Q114.05-13.50 115.72-13.50zM112.86-9.40L112.86-9.40L112.86-9.40Q112.51-8.21 112.35-7.16L112.35-7.16L112.35-7.16Q112.19-6.10 112.19-5.04L112.19-5.04L112.19-5.04Q112.19-3.97 112.63-2.67L112.63-2.67L112.63-2.67Q113.08-1.38 113.94-1.38L113.94-1.38L113.94-1.38Q115.64-1.38 116.96-3.93L116.96-3.93L116.96-3.93Q118.29-6.48 118.29-9.07L118.29-9.07L118.29-9.07Q118.29-9.96 117.46-11.08L117.46-11.08L117.46-11.08Q116.64-12.20 115.40-12.20L115.40-12.20L115.40-12.20Q114.53-12.20 113.87-11.39L113.87-11.39L113.87-11.39Q113.21-10.58 112.86-9.40" fill="#f05125" stroke="none" stroke-width="none" transform="translate(-68.7650146484375,7.420042310442247)" style="fill: rgb(127, 187, 66);"></path></g><g class="path" style="transform: scale(1); transform-origin: 56.22px 6.88004px; animation: 1s linear -0.0942857s infinite normal forwards running beat-a23b6612-c809-45a0-a2f1-5641b6fc2422;"><path d="M124.97 0.81L124.97 0.81L124.97 0.81Q124.47 0.81 123.90 0.45L123.90 0.45L123.90 0.45Q123.34 0.08 123.34-0.43L123.34-0.43L123.34-0.43Q123.34-0.94 123.93-1.42L123.93-1.42L123.93-1.42Q124.52-1.89 125.15-1.89L125.15-1.89L125.15-1.89Q125.77-1.89 126.20-1.54L126.20-1.54L126.20-1.54Q126.63-1.19 126.63-0.66L126.63-0.66L126.63-0.66Q126.63-0.14 126.05 0.34L126.05 0.34L126.05 0.34Q125.47 0.81 124.97 0.81" fill="#f05125" stroke="none" stroke-width="none" transform="translate(-68.7650146484375,7.420042310442247)" style="fill: rgb(50, 160, 218);"></path></g><g class="path" style="transform: scale(1); transform-origin: 62.32px 6.88004px; animation: 1s linear -0.0471429s infinite normal forwards running beat-a23b6612-c809-45a0-a2f1-5641b6fc2422;"><path d="M131.07 0.81L131.07 0.81L131.07 0.81Q130.57 0.81 130.01 0.45L130.01 0.45L130.01 0.45Q129.44 0.08 129.44-0.43L129.44-0.43L129.44-0.43Q129.44-0.94 130.03-1.42L130.03-1.42L130.03-1.42Q130.63-1.89 131.25-1.89L131.25-1.89L131.25-1.89Q131.87-1.89 132.30-1.54L132.30-1.54L132.30-1.54Q132.73-1.19 132.73-0.66L132.73-0.66L132.73-0.66Q132.73-0.14 132.15 0.34L132.15 0.34L132.15 0.34Q131.57 0.81 131.07 0.81" fill="#f05125" stroke="none" stroke-width="none" transform="translate(-68.7650146484375,7.420042310442247)" style="fill: rgb(240, 81, 37);"></path></g><g class="path" style="transform: scale(1); transform-origin: 68.42px 6.88004px; animation: 1s linear 0s infinite normal forwards running beat-a23b6612-c809-45a0-a2f1-5641b6fc2422;"><path d="M137.17 0.81L137.17 0.81L137.17 0.81Q136.67 0.81 136.11 0.45L136.11 0.45L136.11 0.45Q135.54 0.08 135.54-0.43L135.54-0.43L135.54-0.43Q135.54-0.94 136.13-1.42L136.13-1.42L136.13-1.42Q136.73-1.89 137.35-1.89L137.35-1.89L137.35-1.89Q137.97-1.89 138.40-1.54L138.40-1.54L138.40-1.54Q138.83-1.19 138.83-0.66L138.83-0.66L138.83-0.66Q138.83-0.14 138.25 0.34L138.25 0.34L138.25 0.34Q137.67 0.81 137.17 0.81" fill="#f05125" stroke="none" stroke-width="none" transform="translate(-68.7650146484375,7.420042310442247)" style="fill: rgb(253, 184, 19);"></path></g></g>
</g>
</g>
<style id="beat-a23b6612-c809-45a0-a2f1-5641b6fc2422" data-anikit="">@keyframes beat-a23b6612-c809-45a0-a2f1-5641b6fc2422
{
  0% {
    animation-timing-function: cubic-bezier(0.1028,0.2484,0.1372,0.849);
    transform: scale(1);
  }
  34% {
    animation-timing-function: cubic-bezier(0.7116,0.2095,0.8159,0.6876);
    transform: scale(1.2);
  }
  68% {
    animation-timing-function: cubic-bezier(0.1475,0.2888,0.294,0.883);
    transform: scale(1.0268);
  }
  84% {
    animation-timing-function: cubic-bezier(0.8176,0.2193,0.867,0.6889);
    transform: scale(1.0932);
  }
  100% {
    transform: scale(1);
  }
}</style></svg>